<?xml version="1.0" encoding="utf-8"?>
<!-- Generator: Adobe Illustrator 19.2.1, SVG Export Plug-In . SVG Version: 6.00 Build 0)  -->
<svg version="1.1" id="Layer_1" xmlns="http://www.w3.org/2000/svg" xmlns:xlink="http://www.w3.org/1999/xlink" x="0px" y="0px"
	 viewBox="0 0 141 141" style="enable-background:new 0 0 141 141;" xml:space="preserve">
<style type="text/css">
	.st0{fill:#FFFFFF;}
	.st1{fill:#1C212E;}
</style>
<circle class="st0" cx="70.5" cy="70.5" r="70.5"/>
<g>
	<path class="st1" d="M110.8,63.1c-1.3,0-4,0-4-4.9V41.1c0-6.6-4.6-10.8-14-10.8h-2.1v4.1h1.6c6.6,0,9.3,2.7,9.3,6.8v17.1
		c0,2.6,0.4,5.3,2.7,7c-2.3,1.7-2.7,7.1-2.7,9.7V96c0,4.1-2.7,5.8-9.3,5.8h-1.6v4.1h2.1c9.4,0,14-3.2,14-9.8V74.8
		c0-4.9,2.7-7.6,4-7.6h3.5v-4.1H110.8z"/>
	<path class="st1" d="M30.2,63.1c1.3,0,4,0,4-4.9V41.1c0-6.6,4.6-10.8,14-10.8h2.1v4.1h-1.6c-6.6,0-9.3,2.7-9.3,6.8v17.1
		c0,2.6-0.4,5.3-2.7,7c2.3,1.7,2.7,7.1,2.7,9.7V96c0,4.1,2.7,5.8,9.3,5.8h1.6v4.1h-2.1c-9.4,0-14-3.2-14-9.8V74.8
		c0-4.9-2.7-7.6-4-7.6h-3.5v-4.1H30.2z"/>
	<g>
		<path class="st1" d="M90.7,41.3h-6.3c-5.6-0.4-7.2-1.3-7.3-3.1V36H64v2.3c0,1.5-2,3.3-7.3,3.1H50c-2.2,0-4,1.8-4,4v44.5
			c0,2.2,1.8,4,4,4h6.3v6.1c0,1,0.8,1.8,1.8,1.8h7.5L55.2,54.5c0-0.1,0-0.2,0-0.3c0-0.7,0.6-1.3,1.3-1.3c1.9,0,2.8,1.9,3.4,2.8
			c0.6,0.9,0.8,1.2,1.2,1.2s0.6-0.3,1.2-1.2c0.7-1,1.5-2.3,3.4-2.3s2.8,1.4,3.4,2.3c0.6,0.9,0.8,1.2,1.2,1.2c0.4,0,0.6-0.3,1.2-1.2
			c0.6-0.9,1.5-2.3,3.4-2.3c1.9,0,2.8,1.3,3.4,2.3c0.6,0.9,0.8,1.2,1.2,1.2c0.4,0,0.6-0.3,1.2-1.2c0.7-1,1.5-2.3,3.4-2.3
			c0.7,0,1.3,0.6,1.3,1.3c0,0.2,0,0.3-0.1,0.4c0,0,0,0.1,0,0.1l-10,46.5h6.9c1,0,1.8-0.8,1.8-1.8v-6.1h6.5c2.2,0,4-1.8,4-4V45.4
			C94.8,43.2,93,41.3,90.7,41.3z"/>
		<path class="st1" d="M79.7,60.4c-1.9,0-2.8-1.3-3.4-2.3c-0.6-0.9-0.8-1.2-1.2-1.2c-0.4,0-0.6,0.3-1.2,1.2c-0.7,1-1.5,2.3-3.4,2.3
			c-1.9,0-2.8-1.4-3.4-2.3c-0.6-0.9-0.8-1.2-1.2-1.2s-0.6,0.3-1.2,1.2c-0.6,0.9-1.5,2.3-3.4,2.3c-1.1,0-1.1-0.5-1.7-1.2l9.6,42.6h3
			l9.5-42.7C80.9,59.8,80.9,60.4,79.7,60.4z"/>
	</g>
	<g>
		<g>
			<path class="st1" d="M79.8,108.6H61.1c-0.9,0-1.7-0.7-1.7-1.5c0-0.8,0.8-1.5,1.7-1.5h18.7c0.9,0,1.7,0.7,1.7,1.5
				C81.5,107.9,80.8,108.6,79.8,108.6z"/>
		</g>
		<g>
			<path class="st1" d="M79.7,113.7H61.3c-0.9,0-1.7-0.7-1.7-1.5c0-0.8,0.8-1.5,1.7-1.5h18.4c0.9,0,1.7,0.7,1.7,1.5
				C81.4,113,80.6,113.7,79.7,113.7z"/>
		</g>
		<g>
			<path class="st1" d="M65.8,115.6h9.3c0.5,0,0.8,0.4,0.6,0.8l-0.9,1.6c-0.1,0.2-0.4,0.3-0.6,0.3h-7.4c-0.3,0-0.5-0.1-0.6-0.3
				l-1-1.6C65,116,65.3,115.6,65.8,115.6z"/>
		</g>
	</g>
</g>
</svg>
