<?xml version="1.0" encoding="utf-8"?>
<!-- Generator: Adobe Illustrator 19.2.1, SVG Export Plug-In . SVG Version: 6.00 Build 0)  -->
<svg version="1.1" id="Layer_1" xmlns="http://www.w3.org/2000/svg" xmlns:xlink="http://www.w3.org/1999/xlink" x="0px" y="0px"
	 viewBox="0 0 98.6 98.6" style="enable-background:new 0 0 98.6 98.6;" xml:space="preserve">
<style type="text/css">
	.st0{fill:#204B61;}
	.st1{fill:#FFFFFF;}
	.st2{fill:#FFC919;}
	.st3{fill:#B4B5A6;}
</style>
<g>
	<circle class="st0" cx="49.3" cy="49.3" r="49.3"/>
	<g>
		<path class="st1" d="M77.5,44.2c-0.9,0-2.8,0-2.8-3.5V28.8c0-4.6-3.2-7.6-9.8-7.6h-1.4V24h1.1c4.6,0,6.5,1.9,6.5,4.7v11.9
			c0,1.8,0.3,3.7,1.9,4.9c-1.6,1.2-1.9,5-1.9,6.8v14.9c0,2.9-1.9,4-6.5,4h-1.1v2.8h1.4c6.6,0,9.8-2.3,9.8-6.9V52.3
			c0-3.5,1.9-5.3,2.8-5.3h2.4v-2.8H77.5z"/>
		<path class="st1" d="M21.1,44.2c0.9,0,2.8,0,2.8-3.5V28.8c0-4.6,3.2-7.6,9.8-7.6h1.4V24H34c-4.6,0-6.5,1.9-6.5,4.7v11.9
			c0,1.8-0.3,3.7-1.9,4.9c1.6,1.2,1.9,5,1.9,6.8v14.9c0,2.9,1.9,4,6.5,4h1.1v2.8h-1.4c-6.6,0-9.8-2.3-9.8-6.9V52.3
			c0-3.5-1.9-5.3-2.8-5.3h-2.4v-2.8H21.1z"/>
		<g>
			<path class="st2" d="M63.5,28.9h-4.4c-3.9-0.3-5-0.9-5.1-2.2v-1.6h-9.2v1.6c0,1.1-1.4,2.3-5.1,2.2H35c-1.5,0-2.8,1.3-2.8,2.8
				v31.2c0,1.5,1.3,2.8,2.8,2.8h4.4V70c0,0.7,0.6,1.2,1.2,1.2h5.2l-7.2-33.1c0-0.1,0-0.1,0-0.2c0-0.5,0.4-0.9,0.9-0.9
				c1.3,0,2,1.3,2.4,2c0.4,0.6,0.6,0.8,0.9,0.8s0.4-0.2,0.9-0.8c0.5-0.7,1.1-1.6,2.4-1.6s2,1,2.4,1.6c0.4,0.6,0.6,0.8,0.9,0.8
				c0.3,0,0.4-0.2,0.9-0.8c0.4-0.6,1.1-1.6,2.4-1.6c1.3,0,1.9,0.9,2.4,1.6c0.4,0.6,0.6,0.8,0.9,0.8c0.3,0,0.5-0.2,0.9-0.8
				c0.5-0.7,1.1-1.6,2.4-1.6c0.5,0,0.9,0.4,0.9,0.9c0,0.1,0,0.2-0.1,0.3c0,0,0,0.1,0,0.1l-7,32.6h4.8c0.7,0,1.2-0.6,1.2-1.2v-4.3
				h4.6c1.5,0,2.8-1.3,2.8-2.8V31.7C66.3,30.2,65,28.9,63.5,28.9z"/>
			<path class="st2" d="M55.7,42.3c-1.3,0-1.9-0.9-2.4-1.6c-0.4-0.6-0.6-0.8-0.9-0.8c-0.3,0-0.5,0.2-0.9,0.8
				c-0.5,0.7-1.1,1.6-2.4,1.6c-1.3,0-2-1-2.4-1.6c-0.4-0.6-0.6-0.8-0.9-0.8s-0.4,0.2-0.9,0.8c-0.4,0.6-1.1,1.6-2.4,1.6
				c-0.8,0-0.8-0.4-1.2-0.8l6.7,29.8h2.1l6.6-29.9C56.6,41.9,56.6,42.3,55.7,42.3z"/>
		</g>
		<g>
			<g>
				<path class="st3" d="M55.9,76H42.8c-0.7,0-1.2-0.5-1.2-1.1c0-0.6,0.5-1.1,1.2-1.1h13.1c0.7,0,1.2,0.5,1.2,1.1
					C57.1,75.5,56.5,76,55.9,76z"/>
			</g>
			<g>
				<path class="st3" d="M55.8,79.5H42.9c-0.7,0-1.2-0.5-1.2-1.1s0.5-1.1,1.2-1.1h12.9c0.7,0,1.2,0.5,1.2,1.1S56.4,79.5,55.8,79.5z"
					/>
			</g>
			<g>
				<path class="st3" d="M46.1,80.9h6.5c0.4,0,0.6,0.3,0.4,0.6l-0.6,1.1c-0.1,0.1-0.3,0.2-0.4,0.2h-5.2c-0.2,0-0.3-0.1-0.4-0.2
					l-0.7-1.1C45.5,81.2,45.7,80.9,46.1,80.9z"/>
			</g>
		</g>
	</g>
</g>
</svg>
