<?xml version="1.0" encoding="utf-8"?>
<!-- Generator: Adobe Illustrator 19.2.1, SVG Export Plug-In . SVG Version: 6.00 Build 0)  -->
<svg version="1.1" id="Layer_1" xmlns="http://www.w3.org/2000/svg" xmlns:xlink="http://www.w3.org/1999/xlink" x="0px" y="0px"
	 viewBox="0 0 32.8 31.6" style="enable-background:new 0 0 32.8 31.6;" xml:space="preserve">
<style type="text/css">
	.st0{fill:#C4C7CE;}
</style>
<g>
	<path class="st0" d="M19.3,27c-7.4,0-13.5-6.1-13.5-13.5C5.8,6.1,11.8,0,19.3,0c7.4,0,13.5,6.1,13.5,13.5
		C32.8,20.9,26.7,27,19.3,27z M19.3,3C13.5,3,8.8,7.7,8.8,13.5c0,5.8,4.7,10.5,10.5,10.5c5.8,0,10.5-4.7,10.5-10.5
		C29.8,7.7,25.1,3,19.3,3z"/>
	<rect x="-1" y="24.1" transform="matrix(0.7071 -0.7071 0.7071 0.7071 -16.3663 11.7246)" class="st0" width="13.9" height="3"/>
</g>
</svg>
